<?xml version="1.0" encoding="UTF-8"?>
<svg id="Capa_2" data-name="Capa 2" xmlns="http://www.w3.org/2000/svg" viewBox="0 0 468.75 787.35">
  <defs>
    <style>
      .cls-1 {
        fill: #fff;
      }
    </style>
  </defs>
  <g id="Capa_3" data-name="Capa 3">
    <g>
      <path class="cls-1" d="M74.95,112.35l-8.2-45.59c-1.64-9.09-2.09-16.99-3.13-24.73h-.3c-.74,7.75-1.04,15.65-2.38,24.73l-6.41,45.59H25.03L0,0H29.95l6.71,45.3c1.19,8.34,2.09,16.54,3.13,24.88h.3c.89-8.34,1.04-16.54,2.53-24.88L50.51,0h26.08l7.75,45.3c1.34,8.19,2.24,16.24,3.43,24.44h.3c.89-7,1.19-15.65,2.53-24.44L97.3,0h29.65l-22.65,112.35h-29.35Z"/>
      <path class="cls-1" d="M180.74,112.35v-45.59h-14.45v45.59h-30.4V0h30.4V40.23h14.45V0h30.4V112.35h-30.4Z"/>
      <path class="cls-1" d="M229.16,0h56.47V26.52h-26.08v15.65h23.39v26.52h-23.39v17.14h26.08v26.52h-56.47V0Z"/>
      <path class="cls-1" d="M303.51,0h28.91l24.29,67.65,.3-.3c-1.19-12.96-3.43-25.78-3.43-38.74V0h29.2V112.35h-29.2l-22.65-64.82-.3,.3c.75,10.58,2.09,21.01,2.09,31.59v32.93h-29.2V0Z"/>
      <path class="cls-1" d="M8.94,135h24.44c34.57,0,53.19,21.75,53.19,55.73,0,51.85-32.63,56.62-51.11,56.62H8.94v-112.35Zm30.4,85.23c13.86-.15,16.24-17.43,16.24-28.01,0-12.22-2.38-29.2-16.24-29.2v57.22Z"/>
      <path class="cls-1" d="M101.17,247.35v-112.35h30.4v112.35h-30.4Z"/>
      <path class="cls-1" d="M196.53,247.35l-16.84-46.79-.3,.3c.15,5.51,.45,11.03,.45,16.54v29.95h-30.4v-112.35h29.35c26.37,0,45.45,7.75,45.45,37.4,0,12.37-5.36,23.39-17.43,28.16l22.65,46.79h-32.93Zm-14.75-60.35c8.05,0,12.37-7,12.37-14.3,0-9.83-5.96-14.01-14.3-13.56v27.71l1.94,.15Z"/>
      <path class="cls-1" d="M247.93,247.35v-84.93h-16.69v-27.42h64.52v27.42h-17.43v84.93h-30.4Z"/>
      <path class="cls-1" d="M57.66,382.35l-2.23-14.45h-20.41l-2.53,14.45H1.19l26.97-112.35h37.1l23.84,112.35h-31.44Zm-5.81-38.29l-3.28-26.08c-.89-7-1.49-14.16-2.23-21.16h-.3c-.89,7-1.64,14.16-2.83,21.16l-4.17,26.08h12.81Z"/>
      <path class="cls-1" d="M99.08,270h28.91l24.29,67.65,.3-.3c-1.19-12.96-3.43-25.78-3.43-38.74v-28.61h29.2v112.35h-29.2l-22.65-64.82-.3,.3c.75,10.58,2.09,21.01,2.09,31.59v32.93h-29.2v-112.35Z"/>
      <path class="cls-1" d="M196.23,270h24.44c34.57,0,53.19,21.75,53.19,55.73,0,51.85-32.63,56.62-51.11,56.62h-26.52v-112.35Zm30.4,85.23c13.86-.15,16.24-17.43,16.24-28.01,0-12.22-2.38-29.2-16.24-29.2v57.22Z"/>
      <path class="cls-1" d="M6.11,479.5c4.17,6.26,11.47,12.52,19.22,12.52,4.17,0,8.94-2.53,8.94-7.45,0-2.68-.89-4.62-2.38-6.26-1.34-1.64-3.13-2.98-5.07-4.32-5.96-4.62-11.18-8.94-15.05-14.3-3.73-5.21-6.11-11.47-6.11-19.67,0-13.11,8.34-36.95,34.27-36.95,7.3,0,15.2,2.24,21.61,5.66v34.12c-3.58-5.66-10.88-12.07-17.88-12.07-3.58,0-7.9,2.53-7.9,6.85,0,2.38,1.34,4.47,2.98,6.26,1.64,1.79,3.87,3.28,5.51,4.62,6.41,4.47,11.47,8.64,14.9,13.71,3.58,5.07,5.51,11.03,5.51,19.52,0,20.86-14.6,37.55-35.76,37.55-7.75,0-15.65-1.64-22.8-4.62v-35.17Z"/>
      <path class="cls-1" d="M90.44,517.35v-84.93h-16.69v-27.42h64.52v27.42h-17.43v84.93h-30.4Z"/>
      <path class="cls-1" d="M150.49,517.35v-112.35h30.4v112.35h-30.4Z"/>
      <path class="cls-1" d="M198.76,405h28.91l24.29,67.65,.3-.3c-1.19-12.96-3.43-25.78-3.43-38.74v-28.61h29.2v112.35h-29.2l-22.65-64.82-.3,.3c.75,10.58,2.09,21.01,2.09,31.59v32.93h-29.2v-112.35Z"/>
      <path class="cls-1" d="M375.18,405l-24.29,54.24,27.12,58.11h-32.63l-18.92-51.55h-.15v51.55h-30.4v-112.35h30.4v47.83h.15l16.69-47.83h32.04Z"/>
      <path class="cls-1" d="M8.94,652.35v-112.35h30.4v85.83h22.8v26.52H8.94Z"/>
      <path class="cls-1" d="M74.5,652.35v-112.35h30.4v112.35h-30.4Z"/>
      <path class="cls-1" d="M122.77,540h28.91l24.29,67.65,.3-.3c-1.19-12.96-3.43-25.78-3.43-38.74v-28.61h29.2v112.35h-29.2l-22.65-64.82-.3,.3c.75,10.58,2.09,21.01,2.09,31.59v32.93h-29.2v-112.35Z"/>
      <path class="cls-1" d="M300.83,587.38l.15,4.77c0,27.71-5.36,62.13-40.53,62.13-33.08,0-43.81-29.06-43.81-57.52s10.58-58.71,43.51-58.71c18.18,0,31.74,11.47,38.29,27.71l-29.35,10.88c-.3-4.47-3.28-11.47-8.64-11.47-14.01,0-12.81,25.78-12.81,34.27,.45,8.05-.15,27.71,11.62,27.71,8.05,0,10.58-9.54,10.43-16.09h-11.18v-23.69h42.32Z"/>
      <path class="cls-1" d="M314.38,540h56.47v26.52h-26.08v15.65h23.39v26.52h-23.39v17.13h26.08v26.52h-56.47v-112.35Z"/>
      <path class="cls-1" d="M435.82,652.35l-16.84-46.79-.3,.3c.15,5.51,.45,11.03,.45,16.54v29.95h-30.4v-112.35h29.35c26.37,0,45.45,7.75,45.45,37.4,0,12.37-5.36,23.39-17.43,28.16l22.65,46.79h-32.93Zm-14.75-60.35c8.05,0,12.37-7,12.37-14.3,0-9.83-5.96-14.01-14.3-13.56v27.71l1.94,.15Z"/>
      <path class="cls-1" d="M8.94,675h24.44c34.57,0,53.19,21.75,53.19,55.73,0,51.85-32.63,56.62-51.11,56.62H8.94v-112.35Zm30.4,85.23c13.86-.15,16.24-17.43,16.24-28.01,0-12.22-2.38-29.2-16.24-29.2v57.22Z"/>
      <path class="cls-1" d="M101.17,675h56.47v26.52h-26.08v15.65h23.39v26.52h-23.39v17.13h26.08v26.52h-56.47v-112.35Z"/>
      <path class="cls-1" d="M175.52,675h56.47v26.52h-26.08v15.65h23.39v26.52h-23.39v17.13h26.08v26.52h-56.47v-112.35Z"/>
      <path class="cls-1" d="M249.87,787.35v-112.35h27.71c26.52,0,46.94,8.64,46.94,38.14s-17.88,38.14-44.25,37.4v36.8h-30.4Zm32.63-88.21l-2.24,.15v25.93c8.34,.45,13.56-4.17,13.56-12.52,0-7.15-3.87-13.56-11.32-13.56Z"/>
    </g>
  </g>
</svg>